<svg width="129" height="28" viewBox="0 0 129 28" fill="none" xmlns="http://www.w3.org/2000/svg">
<path d="M14 0C21.732 0 28 6.26801 28 14C28 21.732 21.732 28 14 28C6.26803 28 0 21.732 0 14C0 6.26802 6.26803 1.6493e-05 14 0ZM14.0635 4.72266C12.6267 4.72266 11.3086 4.95332 10.1113 5.41504C8.91399 5.85977 7.86996 6.50176 6.98047 7.33984C6.09101 8.17798 5.39844 9.16213 4.90234 10.291C4.42338 11.42 4.18364 12.6604 4.18359 14.0117C4.18359 15.3631 4.42343 16.6034 4.90234 17.7324C5.39843 18.8614 6.0827 19.8454 6.95508 20.6836C7.84449 21.5216 8.87945 22.1719 10.0596 22.6338C11.257 23.0785 12.5666 23.3008 13.9863 23.3008C15.2691 23.3007 16.5522 23.1043 17.835 22.7109C18.9725 22.3666 19.9863 21.8914 20.875 21.2852L21.248 21.0176V16.2734L17.4502 17.3594V19.0049C17.1714 19.1516 16.8891 19.2756 16.6035 19.375C15.8338 19.6316 15.0378 19.7597 14.2168 19.7598C13.3618 19.7597 12.5747 19.6231 11.8564 19.3496C11.1552 19.076 10.539 18.682 10.0088 18.1689C9.49567 17.6387 9.09353 17.0226 8.80273 16.3213C8.52907 15.6199 8.3916 14.8499 8.3916 14.0117C8.39164 13.1565 8.52906 12.3781 8.80273 11.6768C9.09354 10.9755 9.49567 10.3676 10.0088 9.85449C10.539 9.34159 11.1637 8.94842 11.8818 8.6748C12.6002 8.4012 13.3963 8.26367 14.2686 8.26367C15.1749 8.26376 16.0136 8.43531 16.7832 8.77734C17.5527 9.10237 18.2632 9.60697 18.9131 10.291L21.582 7.82715C20.7098 6.81811 19.6313 6.04884 18.3486 5.51855C17.083 4.98836 15.654 4.72276 14.0635 4.72266ZM11.1211 12.2617L12.0508 15.5234L12.7373 17.9287L23.749 14.7891L22.8037 11.4717L15.1074 13.665L14.4385 11.3164L11.1211 12.2617Z" fill="white"/>
<path d="M42.1989 19.8069C41.2999 19.8069 40.4697 19.6694 39.7082 19.3944C38.9572 19.1088 38.3015 18.7069 37.7409 18.1887C37.191 17.6704 36.7626 17.057 36.4559 16.3484C36.1492 15.6397 35.9958 14.8571 35.9958 14.0004C35.9958 13.1437 36.1492 12.361 36.4559 11.6524C36.7626 10.9437 37.1962 10.3303 37.7568 9.81206C38.3174 9.29381 38.9784 8.89719 39.7399 8.6222C40.512 8.33663 41.3581 8.19385 42.2783 8.19385C43.3782 8.19385 44.3566 8.37894 45.2133 8.74912C46.0805 9.11929 46.7945 9.64812 47.355 10.3356L44.9594 12.4456C44.6104 12.0437 44.2296 11.7423 43.8172 11.5413C43.4152 11.3298 42.9657 11.224 42.4686 11.224C42.0562 11.224 41.6807 11.2875 41.3422 11.4144C41.0144 11.5413 40.7341 11.7264 40.5014 11.9697C40.2687 12.2129 40.0889 12.5038 39.962 12.8422C39.8351 13.1807 39.7716 13.5667 39.7716 14.0004C39.7716 14.4129 39.8351 14.7936 39.962 15.1426C40.0889 15.4811 40.2687 15.7719 40.5014 16.0152C40.7341 16.2585 41.0091 16.4488 41.3264 16.5863C41.6543 16.7133 42.0191 16.7767 42.4211 16.7767C42.8441 16.7767 43.2566 16.708 43.6585 16.5705C44.0604 16.4224 44.4888 16.1738 44.9436 15.8248L47.0377 18.3949C46.3608 18.8497 45.5887 19.1987 44.7215 19.442C43.8542 19.6853 43.0133 19.8069 42.1989 19.8069ZM43.7854 17.919V13.6989H47.0377V18.3949L43.7854 17.919Z" fill="white"/>
<path d="M47.4273 19.5531L52.2819 8.44768H55.9625L60.8172 19.5531H56.9462L53.3607 10.2245H54.8203L51.2348 19.5531H47.4273ZM50.3147 17.6175L51.2666 14.9205H56.375L57.3269 17.6175H50.3147Z" fill="white"/>
<path d="M61.4147 19.5531V8.44768H67.3481C68.8817 8.44768 70.0134 8.72267 70.7432 9.27266C71.473 9.81206 71.8379 10.5048 71.8379 11.3509C71.8379 11.9115 71.6792 12.4139 71.3619 12.8581C71.0552 13.2917 70.6057 13.6355 70.0134 13.8893C69.4211 14.1432 68.6914 14.2701 67.8241 14.2701L68.1414 13.4134C69.0087 13.4134 69.7543 13.535 70.3783 13.7783C71.0129 14.0215 71.4994 14.3758 71.8379 14.8412C72.1869 15.296 72.3614 15.846 72.3614 16.4911C72.3614 17.4536 71.9595 18.2045 71.1557 18.7439C70.3625 19.2834 69.199 19.5531 67.6654 19.5531H61.4147ZM65.0953 16.9354H67.3481C67.7606 16.9354 68.0673 16.8613 68.2683 16.7133C68.4798 16.5652 68.5856 16.3484 68.5856 16.0628C68.5856 15.7772 68.4798 15.5604 68.2683 15.4123C68.0673 15.2643 67.7606 15.1902 67.3481 15.1902H64.8415V12.7153H66.8405C67.2635 12.7153 67.5703 12.6466 67.7606 12.5091C67.9616 12.361 68.0621 12.1548 68.0621 11.8903C68.0621 11.6154 67.9616 11.4091 67.7606 11.2716C67.5703 11.1341 67.2635 11.0654 66.8405 11.0654H65.0953V16.9354Z" fill="white"/>
<path d="M72.4794 19.5531L77.3341 8.44768H81.0147L85.8693 19.5531H81.9983L78.4129 10.2245H79.8724L76.287 19.5531H72.4794ZM75.3668 17.6175L76.3187 14.9205H81.4272L82.3791 17.6175H75.3668Z" fill="white"/>
<path d="M86.4669 19.5531V8.44768H91.8133C92.8498 8.44768 93.7435 8.61691 94.4944 8.95536C95.256 9.29381 95.843 9.78033 96.2554 10.4149C96.6679 11.0389 96.8742 11.7793 96.8742 12.636C96.8742 13.4927 96.6679 14.2331 96.2554 14.8571C95.843 15.4705 95.256 15.9412 94.4944 16.269C93.7435 16.5969 92.8498 16.7608 91.8133 16.7608H88.5451L90.2109 15.222V19.5531H86.4669ZM93.1142 19.5531L90.3855 15.5075H94.3517L97.1121 19.5531H93.1142ZM90.2109 15.6344L88.5451 13.9369H91.5753C92.0936 13.9369 92.4743 13.8206 92.7176 13.5879C92.9714 13.3552 93.0983 13.0379 93.0983 12.636C93.0983 12.2341 92.9714 11.9168 92.7176 11.6841C92.4743 11.4514 92.0936 11.3351 91.5753 11.3351H88.5451L90.2109 9.63755V15.6344Z" fill="white"/>
<path d="M98.288 19.5531V8.44768H102.032V19.5531H98.288Z" fill="white"/>
<path d="M106.246 19.5531V11.3509H102.994V8.44768H113.242V11.3509H109.99V19.5531H106.246Z" fill="white"/>
<path d="M117.642 12.5725H122.591V15.2696H117.642V12.5725ZM117.895 16.7291H123.448V19.5531H114.215V8.44768H123.242V11.2716H117.895V16.7291Z" fill="white"/>
<path d="M124.889 19.5531V8.44768H128.634V19.5531H124.889Z" fill="white"/>
</svg>
