<svg width="166" height="36" viewBox="0 0 166 36" fill="none" xmlns="http://www.w3.org/2000/svg">
<rect x="3.05176e-05" y="1.52588e-05" width="36" height="36" rx="18" fill="#1E44C3"/>
<path d="M18.0806 6.07234C20.1261 6.07235 21.9628 6.41298 23.5904 7.0948C25.24 7.77665 26.6259 8.76683 27.7476 10.0645L24.316 13.2315C23.4802 12.3518 22.5674 11.7031 21.5777 11.2852C20.5879 10.8453 19.51 10.6251 18.3443 10.6251C17.2226 10.6251 16.1997 10.8015 15.2759 11.1534C14.3523 11.5053 13.5495 12.0112 12.8677 12.671C12.2079 13.3308 11.6908 14.112 11.3169 15.0137C10.9651 15.9154 10.7896 16.9161 10.7896 18.0157C10.7896 19.0932 10.9652 20.0828 11.3169 20.9845C11.6909 21.8862 12.2079 22.6786 12.8677 23.3604C13.5495 24.0202 14.3411 24.5261 15.2427 24.878C16.1665 25.2299 17.1791 25.4063 18.2789 25.4063C19.3345 25.4063 20.3576 25.2411 21.3472 24.9112C21.7144 24.7835 22.0766 24.6242 22.4351 24.4356V22.3194L27.3189 20.9229V27.0225L26.8384 27.3673C25.6958 28.1466 24.3928 28.7577 22.9302 29.2003C21.2808 29.7061 19.6314 29.959 17.982 29.9591C16.1565 29.9591 14.4737 29.6725 12.9341 29.1007C11.4166 28.5068 10.0856 27.6715 8.94194 26.5938C7.82028 25.5162 6.94013 24.2514 6.30229 22.7999C5.68645 21.3482 5.37848 19.7533 5.37846 18.0157C5.37846 16.2781 5.68643 14.6832 6.30229 13.2315C6.94009 11.78 7.83059 10.5152 8.97417 9.43758C10.1179 8.35984 11.4599 7.53483 12.9996 6.96297C14.5392 6.3691 16.233 6.07234 18.0806 6.07234Z" fill="white"/>
<path d="M19.4242 17.5694L29.3187 14.7491L30.5355 19.0147L16.3763 23.0508L15.4945 19.959L14.2992 15.7657L18.5638 14.5499L19.4242 17.5694Z" fill="white"/>
<path d="M54.2558 25.4655C53.0999 25.4655 52.0324 25.2887 51.0533 24.9352C50.0878 24.568 49.2447 24.0513 48.524 23.3849C47.8169 22.7186 47.2662 21.9299 46.8718 21.0188C46.4775 20.1077 46.2803 19.1014 46.2803 18C46.2803 16.8985 46.4775 15.8922 46.8718 14.9811C47.2662 14.07 47.8237 13.2813 48.5444 12.615C49.2651 11.9487 50.115 11.4387 51.0941 11.0852C52.0868 10.718 53.1747 10.5344 54.3577 10.5344C55.772 10.5344 57.0298 10.7724 58.1313 11.2484C59.2464 11.7243 60.1643 12.4042 60.885 13.2881L57.8049 16.001C57.3562 15.4843 56.8667 15.0967 56.3363 14.8383C55.8196 14.5664 55.2416 14.4304 54.6025 14.4304C54.0722 14.4304 53.5894 14.512 53.1543 14.6752C52.7327 14.8383 52.3724 15.0763 52.0732 15.3891C51.774 15.7018 51.5429 16.0758 51.3797 16.5109C51.2165 16.9461 51.1349 17.4424 51.1349 18C51.1349 18.5303 51.2165 19.0198 51.3797 19.4686C51.5429 19.9037 51.774 20.2777 52.0732 20.5905C52.3724 20.9032 52.7259 21.148 53.1339 21.3248C53.5554 21.488 54.0246 21.5695 54.5413 21.5695C55.0853 21.5695 55.6156 21.4812 56.1323 21.3044C56.6491 21.114 57.1998 20.7944 57.7845 20.3457L60.477 23.6501C59.6067 24.2348 58.614 24.6836 57.499 24.9963C56.3839 25.3091 55.3028 25.4655 54.2558 25.4655ZM56.2955 23.0382V17.6124H60.477V23.6501L56.2955 23.0382Z" fill="#413F4F"/>
<path d="M60.9779 25.1391L67.2196 10.8608H71.9518L78.1935 25.1391H73.2165L68.6066 13.1453H70.4832L65.8733 25.1391H60.9779ZM64.6903 22.6506L65.9141 19.183H72.4821L73.706 22.6506H64.6903Z" fill="#413F4F"/>
<path d="M78.9617 25.1391V10.8608H86.5904C88.5622 10.8608 90.0172 11.2144 90.9555 11.9215C91.8938 12.615 92.363 13.5057 92.363 14.5936C92.363 15.3143 92.159 15.9602 91.751 16.5313C91.3567 17.0889 90.7788 17.5308 90.0172 17.8572C89.2557 18.1835 88.3174 18.3467 87.2024 18.3467L87.6103 17.2453C88.7254 17.2453 89.6841 17.4016 90.4864 17.7144C91.3023 18.0272 91.9278 18.4827 92.363 19.081C92.8117 19.6658 93.0361 20.3729 93.0361 21.2024C93.0361 22.4398 92.5194 23.4053 91.4859 24.0989C90.466 24.7924 88.9702 25.1391 86.9984 25.1391H78.9617ZM83.694 21.7735H86.5904C87.1208 21.7735 87.5151 21.6783 87.7735 21.488C88.0455 21.2976 88.1815 21.0188 88.1815 20.6517C88.1815 20.2845 88.0455 20.0057 87.7735 19.8154C87.5151 19.625 87.1208 19.5298 86.5904 19.5298H83.3676V16.3478H85.9377C86.4817 16.3478 86.876 16.2594 87.1208 16.0826C87.3792 15.8922 87.5083 15.627 87.5083 15.2871C87.5083 14.9335 87.3792 14.6684 87.1208 14.4916C86.876 14.3148 86.4817 14.2264 85.9377 14.2264H83.694V21.7735Z" fill="#413F4F"/>
<path d="M93.1878 25.1391L99.4295 10.8608H104.162L110.403 25.1391H105.426L100.817 13.1453H102.693L98.0832 25.1391H93.1878ZM96.9002 22.6506L98.124 19.183H104.692L105.916 22.6506H96.9002Z" fill="#413F4F"/>
<path d="M111.172 25.1391V10.8608H118.046C119.378 10.8608 120.527 11.0784 121.493 11.5135C122.472 11.9487 123.227 12.5742 123.757 13.3901C124.287 14.1924 124.552 15.1443 124.552 16.2458C124.552 17.3472 124.287 18.2991 123.757 19.1014C123.227 19.8901 122.472 20.4953 121.493 20.9168C120.527 21.3384 119.378 21.5492 118.046 21.5492H113.844L115.985 19.5706V25.1391H111.172ZM119.718 25.1391L116.21 19.9377H121.309L124.858 25.1391H119.718ZM115.985 20.1009L113.844 17.9184H117.74C118.406 17.9184 118.896 17.7688 119.208 17.4696C119.535 17.1705 119.698 16.7625 119.698 16.2458C119.698 15.729 119.535 15.3211 119.208 15.0219C118.896 14.7227 118.406 14.5732 117.74 14.5732H113.844L115.985 12.3906V20.1009Z" fill="#413F4F"/>
<path d="M126.37 25.1391V10.8608H131.184V25.1391H126.37Z" fill="#413F4F"/>
<path d="M136.602 25.1391V14.5936H132.42V10.8608H145.597V14.5936H141.416V25.1391H136.602Z" fill="#413F4F"/>
<path d="M151.253 16.1642H157.617V19.6318H151.253V16.1642ZM151.58 21.5084H158.719V25.1391H146.848V10.8608H158.454V14.4916H151.58V21.5084Z" fill="#413F4F"/>
<path d="M160.572 25.1391V10.8608H165.386V25.1391H160.572Z" fill="#413F4F"/>
</svg>
