<svg width="18" height="14" viewBox="0 0 18 14" fill="none" xmlns="http://www.w3.org/2000/svg">
<path d="M14.625 13.5H11.6719C11.4258 13.5 11.25 13.3242 11.25 13.0781V12.2344C11.25 12.0234 11.4258 11.8125 11.6719 11.8125H14.625C15.5391 11.8125 16.3125 11.0742 16.3125 10.125V3.375C16.3125 2.46094 15.5391 1.6875 14.625 1.6875H11.6719C11.4258 1.6875 11.25 1.51172 11.25 1.26562V0.421875C11.25 0.210938 11.4258 0 11.6719 0H14.625C16.4883 0 18 1.51172 18 3.375V10.125C18 11.9883 16.4883 13.5 14.625 13.5ZM5.87109 0.703125C6.01172 0.527344 6.29297 0.527344 6.46875 0.703125L12.2344 6.46875C12.4102 6.64453 12.4102 6.89062 12.2344 7.06641L6.46875 12.832C6.29297 13.0078 6.01172 13.0078 5.87109 12.832L5.16797 12.1289C4.99219 11.9883 4.99219 11.707 5.16797 11.5312L9.14062 7.66406H0.421875C0.175781 7.66406 0 7.48828 0 7.24219V6.25781C0 6.04688 0.175781 5.83594 0.421875 5.83594H9.14062L5.16797 2.00391C4.99219 1.82812 4.99219 1.54688 5.16797 1.40625L5.87109 0.703125Z" fill="white"/>
</svg>
