<svg width="30" height="28" viewBox="0 0 30 28" fill="none" xmlns="http://www.w3.org/2000/svg">
<path d="M30 5.9375V6.9375C30 7.25 29.75 7.4375 29.5 7.4375H28V8.1875C28 8.625 27.625 8.9375 27.25 8.9375H2.75C2.3125 8.9375 2 8.625 2 8.1875V7.4375H0.5C0.1875 7.4375 0 7.25 0 6.9375V5.9375C0 5.75 0.125 5.5625 0.25 5.5L14.75 0C14.8125 0 14.875 0 14.9375 0C15.0625 0 15.125 0 15.1875 0L29.6875 5.5C29.8125 5.5625 30 5.75 30 5.9375ZM28.5 24.9375C29.3125 24.9375 30 25.625 30 26.4375V27.4375C30 27.75 29.75 27.9375 29.5 27.9375H0.5C0.1875 27.9375 0 27.75 0 27.4375V26.4375C0 25.625 0.625 24.9375 1.5 24.9375H28.5ZM5 9.9375H9V21.9375H13V9.9375H17V21.9375H21V9.9375H25V21.9375H27.25C27.625 21.9375 28 22.3125 28 22.6875V23.9375H2V22.6875C2 22.3125 2.3125 21.9375 2.75 21.9375H5V9.9375Z" fill="#1E44C3"/>
<path d="M30 5.9375V6.9375C30 7.25 29.75 7.4375 29.5 7.4375H28V8.1875C28 8.625 27.625 8.9375 27.25 8.9375H2.75C2.3125 8.9375 2 8.625 2 8.1875V7.4375H0.5C0.1875 7.4375 0 7.25 0 6.9375V5.9375C0 5.75 0.125 5.5625 0.25 5.5L14.75 0C14.8125 0 14.875 0 14.9375 0C15.0625 0 15.125 0 15.1875 0L29.6875 5.5C29.8125 5.5625 30 5.75 30 5.9375ZM28.5 24.9375C29.3125 24.9375 30 25.625 30 26.4375V27.4375C30 27.75 29.75 27.9375 29.5 27.9375H0.5C0.1875 27.9375 0 27.75 0 27.4375V26.4375C0 25.625 0.625 24.9375 1.5 24.9375H28.5ZM5 9.9375H9V21.9375H13V9.9375H17V21.9375H21V9.9375H25V21.9375H27.25C27.625 21.9375 28 22.3125 28 22.6875V23.9375H2V22.6875C2 22.3125 2.3125 21.9375 2.75 21.9375H5V9.9375Z" fill="url(#paint0_linear_314_41)"/>
<defs>
<linearGradient id="paint0_linear_314_41" x1="15" y1="-2.0625" x2="15" y2="29.9375" gradientUnits="userSpaceOnUse">
<stop stop-color="#1E9DC3"/>
<stop offset="1" stop-color="#1E44C3"/>
</linearGradient>
</defs>
</svg>
