<svg width="21" height="18" viewBox="0 0 21 18" fill="none" xmlns="http://www.w3.org/2000/svg">
<path d="M3.375 0C3.76172 0 4.11328 0.316406 4.18359 0.703125L4.25391 1.125H19.0195C19.7578 1.125 20.3203 1.86328 20.1094 2.56641L18.2109 9.31641C18.0703 9.80859 17.6484 10.125 17.1211 10.125H5.97656L6.29297 11.8125H17.1562C17.6133 11.8125 18 12.1992 18 12.6562C18 13.1484 17.6133 13.5 17.1562 13.5H5.58984C5.20312 13.5 4.85156 13.2188 4.78125 12.832L2.67188 1.6875H0.84375C0.351562 1.6875 0 1.33594 0 0.84375C0 0.386719 0.351562 0 0.84375 0H3.375ZM16.6992 8.4375L18.2812 2.8125H4.60547L5.66016 8.4375H16.6992ZM4.5 16.3125C4.5 15.3984 5.23828 14.625 6.1875 14.625C7.10156 14.625 7.875 15.3984 7.875 16.3125C7.875 17.2617 7.10156 18 6.1875 18C5.23828 18 4.5 17.2617 4.5 16.3125ZM18 16.3125C18 17.2617 17.2266 18 16.3125 18C15.3633 18 14.625 17.2617 14.625 16.3125C14.625 15.3984 15.3633 14.625 16.3125 14.625C17.2266 14.625 18 15.3984 18 16.3125Z" fill="#413F4F"/>
</svg>
