<svg width="12" height="12" viewBox="0 0 12 12" fill="none" xmlns="http://www.w3.org/2000/svg">
<path d="M11.9863 0.890625V9.79688C11.9863 10.3164 11.5781 10.6875 11.0957 10.6875C10.5762 10.6875 10.2051 10.3164 10.2051 9.79688V3.04297L1.63281 11.6152C1.44727 11.8008 1.22461 11.875 1.00195 11.875C0.742188 11.875 0.519531 11.8008 0.371094 11.6152C0 11.2812 0 10.7246 0.371094 10.3906L8.94336 1.78125H2.18945C1.66992 1.78125 1.29883 1.41016 1.29883 0.890625C1.29883 0.408203 1.66992 0 2.18945 0H11.0957C11.5781 0 11.9863 0.408203 11.9863 0.890625Z" fill="#1E44C3"/>
</svg>
