<svg width="22" height="22" viewBox="0 0 22 22" fill="none" xmlns="http://www.w3.org/2000/svg">
<path d="M11 0C17.1445 0 21.7852 5.15625 22 11V17.1875C22 19.293 20.2812 20.9688 18.2188 20.9688H13.4492C13.1055 21.6133 12.418 22 11.6875 22H10.2695C9.15234 22 8.25 21.0977 8.25 19.9375C8.25 18.8203 9.15234 17.875 10.3125 17.875H11.6875C12.418 17.875 13.1055 18.3047 13.4492 18.9062H18.2188C19.1641 18.9062 19.9375 18.1758 19.9375 17.1875V16.3281C19.5938 16.457 19.207 16.5 18.8203 16.5H18.0469C17.1875 16.5 16.5 15.8125 16.5 14.9102V9.19531C16.5 8.29297 17.1875 7.5625 18.0469 7.5625H18.8203C18.9922 7.5625 19.1211 7.60547 19.25 7.60547C17.918 4.38281 14.6953 2.10547 11 2.10547C7.26172 2.10547 4.03906 4.38281 2.70703 7.64844C2.83594 7.60547 2.96484 7.5625 3.13672 7.5625H3.91016C4.76953 7.5625 5.5 8.29297 5.5 9.19531V14.9102C5.5 15.8125 4.76953 16.5 3.91016 16.5H3.13672C1.375 16.5 0 15.082 0 13.3203V11C0.171875 5.15625 4.8125 0 11 0ZM3.13672 9.625C2.53516 9.625 2.10547 10.0977 2.0625 10.6992C2.0625 10.8281 2.0625 10.9141 2.0625 11V13.3203C2.0625 13.9219 2.53516 14.4375 3.13672 14.4375H3.4375V9.625H3.13672ZM18.8203 14.4375C19.4219 14.4375 19.9375 13.9219 19.9375 13.3203V11C19.9375 10.9141 19.8945 10.8281 19.8945 10.6992C19.8516 10.1406 19.4219 9.625 18.8203 9.625H18.5625V14.4375H18.8203Z" fill="#7DC7EC"/>
</svg>
