<svg width="40" height="28" viewBox="0 0 40 28" fill="none" xmlns="http://www.w3.org/2000/svg">
<path d="M11.5 3.5C11.5 5.4375 9.875 7 8 7C6.0625 7 4.5 5.4375 4.5 3.5C4.5 1.625 6.0625 0 8 0C9.875 0 11.5 1.625 11.5 3.5ZM13 10.3125C11.125 11.9375 10 14.375 10 17C10 19.1875 10.6875 21.125 12 22.6875V24C12 25.125 11.0625 26 10 26H6C4.875 26 4 25.125 4 24V22.375C1.625 21.25 0 18.8125 0 16C0 12.1875 3.125 9 7 9H9C10.4375 9 11.875 9.5 13 10.3125ZM4 13.375C3.375 14.0625 3 15 3 16C3 17.0625 3.375 18 4 18.6875V13.375ZM28 24V22.6875C29.25 21.125 30 19.1875 30 17C30 14.375 28.8125 11.9375 26.9375 10.3125C28.0625 9.5 29.5 9 31 9H33C36.8125 9 40 12.1875 40 16C40 18.8125 38.3125 21.25 36 22.375V24C36 25.125 35.0625 26 34 26H30C28.875 26 28 25.125 28 24ZM36 18.6875C36.5625 18 37 17.0625 37 16C37 15 36.5625 14.0625 36 13.375V18.6875ZM35.5 3.5C35.5 5.4375 33.875 7 32 7C30.0625 7 28.5 5.4375 28.5 3.5C28.5 1.625 30.0625 0 32 0C33.875 0 35.5 1.625 35.5 3.5ZM16 4C16 1.8125 17.75 0 20 0C22.1875 0 24 1.8125 24 4C24 6.25 22.1875 8 20 8C17.75 8 16 6.25 16 4ZM28 17C28 19.8125 26.3125 22.25 24 23.375V26C24 27.125 23.0625 28 22 28H18C16.875 28 16 27.125 16 26V23.375C13.625 22.25 12 19.8125 12 17C12 13.1875 15.125 10 19 10H21C24.8125 10 28 13.1875 28 17ZM16 19.6875V14.375C15.375 15.0625 15 16 15 17C15 18.0625 15.375 19 16 19.6875ZM24 14.375V19.6875C24.5625 18.9375 25 18.0625 25 17C25 16 24.5625 15.0625 24 14.375Z" fill="#1E44C3"/>
<path d="M11.5 3.5C11.5 5.4375 9.875 7 8 7C6.0625 7 4.5 5.4375 4.5 3.5C4.5 1.625 6.0625 0 8 0C9.875 0 11.5 1.625 11.5 3.5ZM13 10.3125C11.125 11.9375 10 14.375 10 17C10 19.1875 10.6875 21.125 12 22.6875V24C12 25.125 11.0625 26 10 26H6C4.875 26 4 25.125 4 24V22.375C1.625 21.25 0 18.8125 0 16C0 12.1875 3.125 9 7 9H9C10.4375 9 11.875 9.5 13 10.3125ZM4 13.375C3.375 14.0625 3 15 3 16C3 17.0625 3.375 18 4 18.6875V13.375ZM28 24V22.6875C29.25 21.125 30 19.1875 30 17C30 14.375 28.8125 11.9375 26.9375 10.3125C28.0625 9.5 29.5 9 31 9H33C36.8125 9 40 12.1875 40 16C40 18.8125 38.3125 21.25 36 22.375V24C36 25.125 35.0625 26 34 26H30C28.875 26 28 25.125 28 24ZM36 18.6875C36.5625 18 37 17.0625 37 16C37 15 36.5625 14.0625 36 13.375V18.6875ZM35.5 3.5C35.5 5.4375 33.875 7 32 7C30.0625 7 28.5 5.4375 28.5 3.5C28.5 1.625 30.0625 0 32 0C33.875 0 35.5 1.625 35.5 3.5ZM16 4C16 1.8125 17.75 0 20 0C22.1875 0 24 1.8125 24 4C24 6.25 22.1875 8 20 8C17.75 8 16 6.25 16 4ZM28 17C28 19.8125 26.3125 22.25 24 23.375V26C24 27.125 23.0625 28 22 28H18C16.875 28 16 27.125 16 26V23.375C13.625 22.25 12 19.8125 12 17C12 13.1875 15.125 10 19 10H21C24.8125 10 28 13.1875 28 17ZM16 19.6875V14.375C15.375 15.0625 15 16 15 17C15 18.0625 15.375 19 16 19.6875ZM24 14.375V19.6875C24.5625 18.9375 25 18.0625 25 17C25 16 24.5625 15.0625 24 14.375Z" fill="url(#paint0_linear_314_274)"/>
<defs>
<linearGradient id="paint0_linear_314_274" x1="20" y1="-2" x2="20" y2="30" gradientUnits="userSpaceOnUse">
<stop stop-color="#1E9DC3"/>
<stop offset="1" stop-color="#1E44C3"/>
</linearGradient>
</defs>
</svg>
