<svg width="16" height="13" viewBox="0 0 16 13" fill="none" xmlns="http://www.w3.org/2000/svg">
<path d="M0 0.84375C0 0.386719 0.351562 0 0.84375 0H14.9062C15.3633 0 15.75 0.386719 15.75 0.84375C15.75 1.33594 15.3633 1.6875 14.9062 1.6875H0.84375C0.351562 1.6875 0 1.33594 0 0.84375ZM0 6.46875C0 6.01172 0.351562 5.625 0.84375 5.625H14.9062C15.3633 5.625 15.75 6.01172 15.75 6.46875C15.75 6.96094 15.3633 7.3125 14.9062 7.3125H0.84375C0.351562 7.3125 0 6.96094 0 6.46875ZM14.9062 12.9375H0.84375C0.351562 12.9375 0 12.5859 0 12.0938C0 11.6367 0.351562 11.25 0.84375 11.25H14.9062C15.3633 11.25 15.75 11.6367 15.75 12.0938C15.75 12.5859 15.3633 12.9375 14.9062 12.9375Z" fill="#1E44C3"/>
</svg>
