<svg width="20" height="20" viewBox="0 0 20 20" fill="none" xmlns="http://www.w3.org/2000/svg">
<path fill-rule="evenodd" clip-rule="evenodd" d="M5.246 0.75H14.255C16.737 0.75 18.75 2.762 18.75 5.246V14.255C18.75 16.737 16.738 18.75 14.254 18.75H5.246C2.763 18.75 0.75 16.738 0.75 14.254V5.246C0.75 2.763 2.762 0.75 5.246 0.75V0.75Z" stroke="#7DC7EC" stroke-width="1.5" stroke-linecap="round" stroke-linejoin="round"/>
<path d="M14.699 4.46279C14.513 4.46379 14.362 4.61479 14.362 4.80079C14.362 4.98679 14.514 5.13779 14.7 5.13779C14.886 5.13779 15.037 4.98679 15.037 4.80079C15.038 4.61379 14.886 4.46279 14.699 4.46279" stroke="#7DC7EC" stroke-width="1.5" stroke-linecap="round" stroke-linejoin="round"/>
<path d="M12.2956 7.20432C13.7015 8.61021 13.7015 10.8896 12.2956 12.2955C10.8897 13.7014 8.61033 13.7014 7.20444 12.2955C5.79855 10.8896 5.79855 8.61021 7.20444 7.20432C8.61033 5.79843 10.8897 5.79843 12.2956 7.20432" stroke="#7DC7EC" stroke-width="1.5" stroke-linecap="round" stroke-linejoin="round"/>
</svg>
