<svg width="22" height="17" viewBox="0 0 22 17" fill="none" xmlns="http://www.w3.org/2000/svg">
<path d="M0 2.75C0 1.24609 1.20312 0 2.75 0H19.25C20.7539 0 22 1.24609 22 2.75V13.75C22 15.2969 20.7539 16.5 19.25 16.5H2.75C1.20312 16.5 0 15.2969 0 13.75V2.75ZM2.0625 2.75V3.73828L9.45312 9.79688C10.3555 10.5273 11.6016 10.5273 12.5039 9.79688L19.9375 3.73828V2.75C19.9375 2.40625 19.5938 2.0625 19.25 2.0625H2.75C2.36328 2.0625 2.0625 2.40625 2.0625 2.75ZM2.0625 6.40234V13.75C2.0625 14.1367 2.36328 14.4375 2.75 14.4375H19.25C19.5938 14.4375 19.9375 14.1367 19.9375 13.75V6.40234L13.8359 11.3867C12.1602 12.7617 9.79688 12.7617 8.12109 11.3867L2.0625 6.40234Z" fill="#7DC7EC"/>
</svg>
