<svg width="20" height="20" viewBox="0 0 20 20" fill="none" xmlns="http://www.w3.org/2000/svg">
<path d="M17.32 0.100342H2.31995C1.72321 0.100342 1.15091 0.337395 0.728953 0.759352C0.306999 1.18131 0.0699463 1.75362 0.0699463 2.35036V17.3504C0.0699463 17.9471 0.306999 18.5194 0.728953 18.9413C1.15091 19.3633 1.72321 19.6004 2.31995 19.6004H3.37745V17.2116C3.37839 16.0151 3.72976 14.8452 4.38823 13.8462C5.04665 12.8472 5.98329 12.063 7.08245 11.5903C6.60729 11.1924 6.22535 10.6949 5.96356 10.1331C5.70177 9.57132 5.56655 8.95887 5.56745 8.33911C5.56914 7.21179 6.01771 6.13111 6.81485 5.33397C7.61199 4.53684 8.69263 4.0883 9.81995 4.08661C10.9478 4.08747 12.0294 4.53567 12.8273 5.33289C13.6252 6.13006 14.0743 7.21119 14.0762 8.33911C14.0771 8.95887 13.9419 9.57132 13.6801 10.1331C13.4183 10.6949 13.0364 11.1924 12.5612 11.5903C13.6595 12.0638 14.5952 12.8483 15.2529 13.8472C15.9106 14.8461 16.2616 16.0156 16.2625 17.2116V19.6004H17.32C17.9167 19.6004 18.489 19.3633 18.9109 18.9413C19.3329 18.5194 19.57 17.9471 19.57 17.3504V2.35036C19.57 1.75362 19.3329 1.18131 18.9109 0.759352C18.489 0.337395 17.9167 0.100342 17.32 0.100342Z" fill="#FF7C00"/>
</svg>
