<svg width="24" height="24" viewBox="0 0 24 24" fill="none" xmlns="http://www.w3.org/2000/svg">
<g clip-path="url(#clip0_18_379)">
<path d="M23.2813 9.48506H21.3707C21.1494 8.65895 20.8224 7.87609 20.4041 7.15245L21.7554 5.80112C22.0361 5.52057 22.0361 5.06564 21.7554 4.78497L19.2149 2.24448C18.9344 1.96385 18.4794 1.96385 18.1989 2.24448L16.8475 3.59588C16.1239 3.17757 15.3411 2.85059 14.5149 2.62934V0.718645C14.5149 0.321745 14.1933 6.10352e-05 13.7963 6.10352e-05H10.2035C9.80656 6.10352e-05 9.48496 0.321745 9.48496 0.718645V2.62942C8.65877 2.85059 7.87607 3.17765 7.15242 3.59596L5.8011 2.24463C5.5204 1.96393 5.06561 1.96393 4.78495 2.24463L2.24438 4.78505C1.96367 5.06567 1.96367 5.52053 2.24438 5.80124L3.59578 7.15264C3.17763 7.87624 2.85057 8.65895 2.62943 9.48506H0.718662C0.321763 9.48506 0 9.80674 0 10.2036V13.7964C0 14.1933 0.321763 14.515 0.718662 14.515H2.62943C2.85061 15.3411 3.17767 16.1239 3.5959 16.8475L2.2445 18.1989C1.96379 18.4794 1.96379 18.9344 2.2445 19.215L4.78491 21.7555C5.06569 22.0362 5.52055 22.0362 5.80122 21.7555L7.15254 20.4042C7.87611 20.8224 8.65889 21.1495 9.48508 21.3706V23.2815C9.48508 23.6783 9.80668 24.0001 10.2037 24.0001H13.7964C14.1934 24.0001 14.515 23.6783 14.515 23.2815V21.3706C15.3412 21.1495 16.124 20.8224 16.8476 20.4041L18.199 21.7554C18.4796 22.0361 18.9345 22.0361 19.2152 21.7554L21.7556 19.215C22.0363 18.9343 22.0363 18.4794 21.7556 18.1988L20.4043 16.8475C20.8226 16.1238 21.1497 15.3411 21.3709 14.515H23.2815C23.6785 14.515 24.0001 14.1933 24.0001 13.7964V10.2036C23.9998 9.80674 23.6782 9.48506 23.2813 9.48506ZM12 15.5928C10.0157 15.5928 8.40724 13.9842 8.40724 12.0001C8.40724 10.0159 10.0157 8.4073 12 8.4073C13.9843 8.4073 15.5928 10.0159 15.5928 12.0001C15.5927 13.9842 13.9843 15.5928 12 15.5928Z" fill="#FF7C00"/>
</g>
<defs>
<clipPath id="clip0_18_379">
<rect width="24" height="24" fill="white"/>
</clipPath>
</defs>
</svg>
