<svg width="24" height="24" viewBox="0 0 24 24" fill="none" xmlns="http://www.w3.org/2000/svg">
<path d="M11.9971 0.74707C7.44961 0.74707 3.74854 4.44962 3.74854 8.99707C3.74853 16.9986 11.5327 23.0815 11.5327 23.0815C11.8062 23.2993 12.1938 23.2993 12.4673 23.0815C12.4673 23.0815 20.2529 16.9986 20.2529 8.99707C20.2529 4.44962 16.5445 0.74707 11.9971 0.74707ZM11.9971 5.24854C14.0593 5.24854 15.7515 6.93489 15.7515 8.99707C15.7515 11.0593 14.0593 12.75 11.9971 12.75C9.93488 12.75 8.24852 11.0593 8.24854 8.99707C8.24854 6.93489 9.93489 5.24854 11.9971 5.24854Z" fill="#FF7C00"/>
</svg>
