<svg width="24" height="24" viewBox="0 0 24 24" fill="none" xmlns="http://www.w3.org/2000/svg">
<path fill-rule="evenodd" clip-rule="evenodd" d="M22.5 18C22.5 18.1522 22.4707 18.2963 22.4287 18.4335L15.75 11.25L22.5 6V18ZM2.667 19.4595L9.43499 12.2475L12 14.1863L14.454 12.2355L21.333 19.4595C21.2258 19.4843 2.77425 19.4843 2.667 19.4595ZM1.5 18V6L8.25 11.25L1.57125 18.4335C1.52925 18.2963 1.5 18.1522 1.5 18ZM21.75 4.5L12 12L2.25 4.5H21.75ZM21 3H3C1.34325 3 0 4.34325 0 6V18C0 19.6568 1.34325 21 3 21H21C22.6568 21 24 19.6568 24 18V6C24 4.34325 22.6568 3 21 3Z" fill="#FF7C00"/>
</svg>
