<svg width="28" height="32" viewBox="0 0 28 32" fill="none" xmlns="http://www.w3.org/2000/svg">
<path d="M4.875 6.4375L3.5 5.0625C3.25 4.75 3.0625 4.375 3.0625 3.9375C3.0625 3.25 3.5625 2.625 4.25 2.4375L13.5 0.0625C13.8125 0 14.125 0 14.4375 0.0625L23.75 2.4375C24.375 2.625 24.875 3.25 24.875 3.9375C24.875 4.375 24.75 4.75 24.4375 5.0625L23.0625 6.4375V8.1875C20.5 9.3125 17.375 10 14 10C10.5625 10 7.4375 9.3125 4.875 8.1875V6.4375ZM11.9375 3.875C11.75 3.9375 11.625 4.0625 11.625 4.25C11.625 6.8125 13.5 8 13.9375 8C14.5 8 16.3125 6.75 16.3125 4.25C16.3125 4.0625 16.1875 3.9375 16 3.875L14.125 3.0625L14 3C13.9375 3 13.8125 3.0625 13.8125 3.0625L11.9375 3.875ZM6.0625 10.8125C8.5 11.625 11.1875 12 14 12C16.75 12 19.4375 11.625 21.75 10.8125C21.8125 11.1875 21.875 11.625 21.875 12C21.875 16.4375 18.25 20 13.9375 20C9.5625 20 6 16.4375 6 12C6 11.625 6 11.1875 6.0625 10.8125ZM20 22C24.375 22 28 25.625 28 30C28 31.125 27.0625 32 26 32H2C0.875 32 0 31.125 0 30C0 25.625 3.5625 22 8 22H10L14 26L18 22H20ZM22.375 27.375C22.5625 27.1875 22.4375 26.875 22.1875 26.875L20.875 26.625L20.25 25.4375C20.125 25.1875 19.8125 25.1875 19.6875 25.4375L19.0625 26.625L17.75 26.875C17.5 26.875 17.375 27.1875 17.5625 27.375L18.5625 28.3125L18.3125 29.6875C18.25 29.9375 18.5 30.125 18.75 30L20 29.375L21.1875 30C21.375 30.125 21.6875 29.9375 21.625 29.6875L21.375 28.3125L22.375 27.375Z" fill="#1E44C3"/>
<path d="M4.875 6.4375L3.5 5.0625C3.25 4.75 3.0625 4.375 3.0625 3.9375C3.0625 3.25 3.5625 2.625 4.25 2.4375L13.5 0.0625C13.8125 0 14.125 0 14.4375 0.0625L23.75 2.4375C24.375 2.625 24.875 3.25 24.875 3.9375C24.875 4.375 24.75 4.75 24.4375 5.0625L23.0625 6.4375V8.1875C20.5 9.3125 17.375 10 14 10C10.5625 10 7.4375 9.3125 4.875 8.1875V6.4375ZM11.9375 3.875C11.75 3.9375 11.625 4.0625 11.625 4.25C11.625 6.8125 13.5 8 13.9375 8C14.5 8 16.3125 6.75 16.3125 4.25C16.3125 4.0625 16.1875 3.9375 16 3.875L14.125 3.0625L14 3C13.9375 3 13.8125 3.0625 13.8125 3.0625L11.9375 3.875ZM6.0625 10.8125C8.5 11.625 11.1875 12 14 12C16.75 12 19.4375 11.625 21.75 10.8125C21.8125 11.1875 21.875 11.625 21.875 12C21.875 16.4375 18.25 20 13.9375 20C9.5625 20 6 16.4375 6 12C6 11.625 6 11.1875 6.0625 10.8125ZM20 22C24.375 22 28 25.625 28 30C28 31.125 27.0625 32 26 32H2C0.875 32 0 31.125 0 30C0 25.625 3.5625 22 8 22H10L14 26L18 22H20ZM22.375 27.375C22.5625 27.1875 22.4375 26.875 22.1875 26.875L20.875 26.625L20.25 25.4375C20.125 25.1875 19.8125 25.1875 19.6875 25.4375L19.0625 26.625L17.75 26.875C17.5 26.875 17.375 27.1875 17.5625 27.375L18.5625 28.3125L18.3125 29.6875C18.25 29.9375 18.5 30.125 18.75 30L20 29.375L21.1875 30C21.375 30.125 21.6875 29.9375 21.625 29.6875L21.375 28.3125L22.375 27.375Z" fill="url(#paint0_linear_314_303)"/>
<defs>
<linearGradient id="paint0_linear_314_303" x1="14" y1="0" x2="14" y2="32" gradientUnits="userSpaceOnUse">
<stop stop-color="#1E9DC3"/>
<stop offset="1" stop-color="#1E44C3"/>
</linearGradient>
</defs>
</svg>
