<svg width="37" height="32" viewBox="0 0 37 32" fill="none" xmlns="http://www.w3.org/2000/svg">
<path d="M35.5 21.0625C36.3125 22.1875 36.0625 23.75 34.875 24.5625L26.375 30.75C25.3125 31.5625 23.9375 32 22.5625 32H0.9375C0.4375 32 0 31.5625 0 31V25C0 24.5 0.4375 24 0.9375 24L4.375 24.0625L7.25 21.6875C8.5625 20.625 10.3125 20.0625 11.9375 20.0625H21.9375C23.1875 20.0625 24.125 21.125 23.9375 22.375C23.75 23.375 22.8125 24.0625 21.875 24.0625H16.9375C16.5 24.0625 16 24.5 16 25.0625C16 25.5625 16.4375 26.0625 16.9375 26.0625H24.5L32 20.5C33.125 19.6875 34.6875 19.9375 35.5 21.0625ZM17.4375 10.9375C18.5 11.125 19.375 10.9375 19.4375 10.5C19.5 10.1875 19.5625 10.0625 17.5625 9.5L17.125 9.375C16 9 13 8.125 13.5 5.0625C13.8125 3.5625 14.875 2.5625 16.5 2.1875V1.5C16.5 0.6875 17.125 0 18 0C18.8125 0 19.5 0.6875 19.5 1.5V2.25C19.8125 2.3125 20.25 2.4375 20.6875 2.5625C21.5 2.875 21.875 3.6875 21.625 4.5C21.375 5.3125 20.5 5.6875 19.75 5.4375C19.1875 5.25 18.8125 5.125 18.5 5.0625C17.4375 4.9375 16.5625 5.125 16.5 5.5625C16.4375 5.8125 16.375 6 18 6.5L18.3125 6.5625C19.9375 7.0625 22.875 7.875 22.375 11C22.125 12.5 21.0625 13.5 19.5 13.875V14.5C19.5 15.375 18.8125 16 18 16C17.125 16 16.5 15.375 16.5 14.5V13.75C15.875 13.625 15.3125 13.4375 14.75 13.25L14.4375 13.125C13.6875 12.875 13.3125 11.9375 13.5625 11.25C13.8125 10.5 14.6875 10.0625 15.5 10.375L15.75 10.5C16.3125 10.6875 16.9375 10.875 17.4375 10.9375Z" fill="#1E44C3"/>
<path d="M35.5 21.0625C36.3125 22.1875 36.0625 23.75 34.875 24.5625L26.375 30.75C25.3125 31.5625 23.9375 32 22.5625 32H0.9375C0.4375 32 0 31.5625 0 31V25C0 24.5 0.4375 24 0.9375 24L4.375 24.0625L7.25 21.6875C8.5625 20.625 10.3125 20.0625 11.9375 20.0625H21.9375C23.1875 20.0625 24.125 21.125 23.9375 22.375C23.75 23.375 22.8125 24.0625 21.875 24.0625H16.9375C16.5 24.0625 16 24.5 16 25.0625C16 25.5625 16.4375 26.0625 16.9375 26.0625H24.5L32 20.5C33.125 19.6875 34.6875 19.9375 35.5 21.0625ZM17.4375 10.9375C18.5 11.125 19.375 10.9375 19.4375 10.5C19.5 10.1875 19.5625 10.0625 17.5625 9.5L17.125 9.375C16 9 13 8.125 13.5 5.0625C13.8125 3.5625 14.875 2.5625 16.5 2.1875V1.5C16.5 0.6875 17.125 0 18 0C18.8125 0 19.5 0.6875 19.5 1.5V2.25C19.8125 2.3125 20.25 2.4375 20.6875 2.5625C21.5 2.875 21.875 3.6875 21.625 4.5C21.375 5.3125 20.5 5.6875 19.75 5.4375C19.1875 5.25 18.8125 5.125 18.5 5.0625C17.4375 4.9375 16.5625 5.125 16.5 5.5625C16.4375 5.8125 16.375 6 18 6.5L18.3125 6.5625C19.9375 7.0625 22.875 7.875 22.375 11C22.125 12.5 21.0625 13.5 19.5 13.875V14.5C19.5 15.375 18.8125 16 18 16C17.125 16 16.5 15.375 16.5 14.5V13.75C15.875 13.625 15.3125 13.4375 14.75 13.25L14.4375 13.125C13.6875 12.875 13.3125 11.9375 13.5625 11.25C13.8125 10.5 14.6875 10.0625 15.5 10.375L15.75 10.5C16.3125 10.6875 16.9375 10.875 17.4375 10.9375Z" fill="url(#paint0_linear_143_543)"/>
<defs>
<linearGradient id="paint0_linear_143_543" x1="18" y1="0" x2="18" y2="32" gradientUnits="userSpaceOnUse">
<stop stop-color="#1E9DC3"/>
<stop offset="1" stop-color="#1E44C3"/>
</linearGradient>
</defs>
</svg>
