<svg width="19" height="19" viewBox="0 0 19 19" fill="none" xmlns="http://www.w3.org/2000/svg">
<path d="M17.8594 16.4883C18.0352 16.6641 18.0352 16.9453 17.8594 17.0859L17.0508 17.8945C16.9102 18.0703 16.6289 18.0703 16.4531 17.8945L12.1992 13.6406C12.1289 13.5352 12.0938 13.4297 12.0938 13.3242V12.8672C10.793 13.957 9.14062 14.625 7.3125 14.625C3.26953 14.625 0 11.3555 0 7.3125C0 3.30469 3.26953 0 7.3125 0C11.3203 0 14.625 3.30469 14.625 7.3125C14.625 9.14062 13.9219 10.8281 12.832 12.0938H13.2891C13.3945 12.0938 13.5 12.1641 13.6055 12.2344L17.8594 16.4883ZM7.3125 12.9375C10.4062 12.9375 12.9375 10.4414 12.9375 7.3125C12.9375 4.21875 10.4062 1.6875 7.3125 1.6875C4.18359 1.6875 1.6875 4.21875 1.6875 7.3125C1.6875 10.4414 4.18359 12.9375 7.3125 12.9375Z" fill="#333333"/>
</svg>
