<svg width="15" height="12" viewBox="0 0 15 12" fill="none" xmlns="http://www.w3.org/2000/svg">
<path d="M8.25 1.125H3C2.78906 1.125 2.625 1.3125 2.625 1.5V2.25H5.625C5.8125 2.25 6 2.4375 6 2.625C6 2.83594 5.8125 3 5.625 3H0.375C0.164062 3 0 2.83594 0 2.625C0 2.4375 0.164062 2.25 0.375 2.25H1.5V1.5C1.5 0.679688 2.15625 0 3 0H8.25C9.07031 0 9.75 0.679688 9.75 1.5V2.25H10.7344C11.0859 2.25 11.4141 2.39062 11.6719 2.64844L13.8516 4.82812C14.1094 5.08594 14.25 5.41406 14.25 5.76562V8.625H14.4375C14.7422 8.625 15 8.88281 15 9.1875C15 9.51562 14.7422 9.75 14.4375 9.75H13.5C13.5 10.9922 12.4922 12 11.25 12C9.98438 12 9 10.9922 9 9.75H6C6 10.9922 4.99219 12 3.75 12C2.48438 12 1.5 10.9922 1.5 9.75V6.75H2.625V7.80469C2.95312 7.61719 3.32812 7.5 3.75 7.5C4.57031 7.5 5.29688 7.96875 5.69531 8.625H8.25C8.4375 8.625 8.625 8.46094 8.625 8.25V1.5C8.625 1.3125 8.4375 1.125 8.25 1.125ZM10.875 3.44531C10.8281 3.39844 10.7812 3.375 10.7344 3.375H9.75V5.625H13.0781H13.0547L10.875 3.44531ZM3.75 8.625C3.11719 8.625 2.625 9.14062 2.625 9.75C2.625 10.3828 3.11719 10.875 3.75 10.875C4.35938 10.875 4.875 10.3828 4.875 9.75C4.875 9.14062 4.35938 8.625 3.75 8.625ZM11.25 10.875C11.8594 10.875 12.375 10.3828 12.375 9.75C12.375 9.14062 11.8594 8.625 11.25 8.625C10.6172 8.625 10.125 9.14062 10.125 9.75C10.125 10.3828 10.6172 10.875 11.25 10.875ZM6.375 3.75C6.5625 3.75 6.75 3.9375 6.75 4.125C6.75 4.33594 6.5625 4.5 6.375 4.5H1.125C0.914062 4.5 0.75 4.33594 0.75 4.125C0.75 3.9375 0.914062 3.75 1.125 3.75H6.375ZM5.625 5.25C5.8125 5.25 6 5.4375 6 5.625C6 5.83594 5.8125 6 5.625 6H0.375C0.164062 6 0 5.83594 0 5.625C0 5.4375 0.164062 5.25 0.375 5.25H5.625Z" fill="white"/>
</svg>
