<svg width="32" height="32" viewBox="0 0 32 32" fill="none" xmlns="http://www.w3.org/2000/svg">
<path d="M12.0625 13.9375C10.125 14.4375 7.9375 12.6875 7.1875 9.9375C6.6875 8 7 6.125 7.9375 5L12 0V4.6875C12.9375 5.4375 13.8125 6.625 14.25 8.125C14.9375 10.8125 14 13.4375 12.0625 13.9375ZM19.875 13.9375C17.9375 13.4375 17 10.8125 17.6875 8.125C18.125 6.625 19 5.4375 20 4.6875V0L24 5C24.9375 6.125 25.25 8 24.75 9.9375C24 12.6875 21.8125 14.4375 19.875 13.9375ZM16 16C20.9375 16 28 23.6875 28 28.5625C28 30.75 26.3125 32 23.5 32C20.4375 32 18.4375 30.4375 16 30.4375C13.5 30.4375 11.5 32 8.4375 32C5.625 32 4 30.75 4 28.5625C4 23.6875 11 16 16 16ZM6.75 15.25C7.4375 17.4375 6.4375 19.5 4.625 19.9375C2.8125 20.375 0.8125 19 0.1875 16.8125C0.0625 16.375 0 15.9375 0 15.5C0 14.125 0.375 12.9375 1.125 11.9375L4 8V12.1875C5.1875 12.625 6.3125 13.75 6.75 15.25ZM30.8125 11.9375C31.5625 12.9375 32 14.125 32 15.5C31.9375 15.9375 31.875 16.375 31.75 16.8125C31.125 19 29.125 20.375 27.3125 19.9375C25.5 19.5 24.5 17.4375 25.1875 15.25C25.625 13.75 26.75 12.625 28 12.1875V8L30.8125 11.9375Z" fill="#1E44C3"/>
<path d="M12.0625 13.9375C10.125 14.4375 7.9375 12.6875 7.1875 9.9375C6.6875 8 7 6.125 7.9375 5L12 0V4.6875C12.9375 5.4375 13.8125 6.625 14.25 8.125C14.9375 10.8125 14 13.4375 12.0625 13.9375ZM19.875 13.9375C17.9375 13.4375 17 10.8125 17.6875 8.125C18.125 6.625 19 5.4375 20 4.6875V0L24 5C24.9375 6.125 25.25 8 24.75 9.9375C24 12.6875 21.8125 14.4375 19.875 13.9375ZM16 16C20.9375 16 28 23.6875 28 28.5625C28 30.75 26.3125 32 23.5 32C20.4375 32 18.4375 30.4375 16 30.4375C13.5 30.4375 11.5 32 8.4375 32C5.625 32 4 30.75 4 28.5625C4 23.6875 11 16 16 16ZM6.75 15.25C7.4375 17.4375 6.4375 19.5 4.625 19.9375C2.8125 20.375 0.8125 19 0.1875 16.8125C0.0625 16.375 0 15.9375 0 15.5C0 14.125 0.375 12.9375 1.125 11.9375L4 8V12.1875C5.1875 12.625 6.3125 13.75 6.75 15.25ZM30.8125 11.9375C31.5625 12.9375 32 14.125 32 15.5C31.9375 15.9375 31.875 16.375 31.75 16.8125C31.125 19 29.125 20.375 27.3125 19.9375C25.5 19.5 24.5 17.4375 25.1875 15.25C25.625 13.75 26.75 12.625 28 12.1875V8L30.8125 11.9375Z" fill="url(#paint0_linear_128_42)"/>
<defs>
<linearGradient id="paint0_linear_128_42" x1="16" y1="0" x2="16" y2="32" gradientUnits="userSpaceOnUse">
<stop stop-color="#1E9DC3"/>
<stop offset="1" stop-color="#1E44C3"/>
</linearGradient>
</defs>
</svg>
