<svg width="12" height="12" viewBox="0 0 12 12" fill="none" xmlns="http://www.w3.org/2000/svg">
<path d="M5.625 7.89844C5.41406 8.13281 5.0625 8.13281 4.85156 7.89844L3.53906 6.58594C3.30469 6.375 3.30469 6.02344 3.53906 5.78906C3.75 5.57812 4.10156 5.57812 4.3125 5.78906L5.25 6.72656L7.47656 4.47656C7.6875 4.26562 8.03906 4.26562 8.25 4.47656C8.48438 4.71094 8.48438 5.0625 8.25 5.27344L5.625 7.89844ZM8.0625 1.03125C8.83594 0.9375 9.63281 1.17188 10.2422 1.75781C10.8281 2.36719 11.0625 3.16406 10.9688 3.9375C11.5781 4.42969 12 5.17969 12 6C12 6.84375 11.5781 7.59375 10.9688 8.08594C11.0625 8.83594 10.8281 9.65625 10.2422 10.2422C9.63281 10.8516 8.83594 11.0859 8.0625 10.9922C7.57031 11.6016 6.82031 12 6 12C5.15625 12 4.40625 11.6016 3.91406 10.9922C3.14062 11.0859 2.34375 10.8516 1.73438 10.2422C1.14844 9.65625 0.914062 8.83594 1.00781 8.08594C0.398438 7.59375 0 6.84375 0 6C0 5.17969 0.398438 4.42969 1.00781 3.9375C0.914062 3.16406 1.14844 2.36719 1.73438 1.75781C2.34375 1.17188 3.14062 0.9375 3.91406 1.03125C4.40625 0.421875 5.15625 0 6 0C6.82031 0 7.57031 0.421875 8.0625 1.03125ZM4.45312 2.34375L4.03125 2.20312C3.51562 2.03906 2.92969 2.15625 2.53125 2.55469C2.13281 2.95312 2.01562 3.53906 2.17969 4.03125L2.32031 4.47656L1.89844 4.71094C1.42969 4.94531 1.125 5.4375 1.125 6C1.125 6.58594 1.42969 7.07812 1.89844 7.3125L2.32031 7.52344L2.17969 7.96875C2.01562 8.48438 2.13281 9.04688 2.53125 9.46875C2.92969 9.86719 3.51562 9.98438 4.03125 9.82031L4.45312 9.67969L4.6875 10.1016C4.92188 10.5703 5.41406 10.875 6 10.875C6.5625 10.875 7.05469 10.5703 7.28906 10.1016L7.52344 9.67969L7.94531 9.82031C8.46094 9.98438 9.04688 9.86719 9.44531 9.46875C9.84375 9.04688 9.96094 8.48438 9.79688 7.96875L9.65625 7.52344L10.0781 7.3125C10.5469 7.07812 10.875 6.58594 10.875 6C10.875 5.4375 10.5469 4.94531 10.0781 4.71094L9.65625 4.47656L9.79688 4.03125C9.96094 3.53906 9.84375 2.95312 9.44531 2.55469C9.04688 2.15625 8.46094 2.03906 7.94531 2.20312L7.52344 2.34375L7.28906 1.92188C7.05469 1.45312 6.5625 1.125 6 1.125C5.41406 1.125 4.92188 1.45312 4.6875 1.92188L4.45312 2.34375Z" fill="white"/>
</svg>
