<svg width="21" height="21" viewBox="0 0 21 21" fill="none" xmlns="http://www.w3.org/2000/svg">
<path d="M17.8594 3.04688C19.8281 5.01562 21 7.64062 21 10.4062C21 16.1719 16.2188 20.8125 10.5 20.8125C8.76562 20.8125 7.03125 20.3906 5.53125 19.5469L0 21L1.5 15.6094C0.5625 14.0156 0.09375 12.2344 0.09375 10.4062C0.09375 4.6875 4.78125 0 10.5 0C13.2656 0 15.8906 1.07812 17.8594 3.04688ZM10.5 19.0781C15.2812 19.0781 19.2656 15.1875 19.2656 10.4062C19.2656 8.10938 18.2344 5.95312 16.5938 4.3125C15 2.67188 12.7969 1.78125 10.5 1.78125C5.71875 1.78125 1.82812 5.625 1.82812 10.4062C1.82812 12.0469 2.29688 13.6406 3.1875 15L3.375 15.3281L2.48438 18.5156L5.76562 17.6719L6.09375 17.8594C7.40625 18.6562 8.95312 19.0781 10.5 19.0781ZM15.2344 12.6094C15.5156 12.7031 15.6562 12.7969 15.75 12.8906C15.7969 12.9844 15.7969 13.5469 15.5625 14.1562C15.375 14.7656 14.3438 15.2812 13.8281 15.375C12.9844 15.5156 12.375 15.4219 10.6875 14.7188C8.10938 13.5938 6.375 10.9688 6.28125 10.7812C6.14062 10.6406 5.20312 9.375 5.20312 8.10938C5.20312 6.84375 5.85938 6.1875 6.09375 5.95312C6.375 5.67188 6.65625 5.625 6.79688 5.625C6.98438 5.625 7.17188 5.625 7.3125 5.625C7.45312 5.625 7.6875 5.57812 7.875 6.04688C8.10938 6.5625 8.625 7.875 8.67188 8.01562C8.76562 8.10938 8.8125 8.29688 8.71875 8.4375C8.20312 9.42188 7.6875 9.42188 7.96875 9.89062C8.95312 11.5781 9.98438 12.1875 11.4844 12.9844C11.7656 13.0781 11.9062 13.0781 12.0469 12.8906C12.1875 12.7031 12.7031 12.1406 12.8906 11.8594C13.0312 11.625 13.2188 11.6719 13.4531 11.7656C13.6875 11.8125 15 12.4688 15.2344 12.6094Z" fill="#7DC7EC"/>
</svg>
